HIERARCHY
ROOT Hips
{
	OFFSET -3.958830 18.904000 13.208200
	CHANNELS 6 Xposition Yposition Zposition Zrotation Yrotation Xrotation 
	JOINT LHipJoint
	{
		OFFSET 0.000000 0.000000 0.000000
		CHANNELS 3 Zrotation Yrotation Xrotation
		JOINT LeftUpLeg
		{
			OFFSET 1.800000 -1.400000 0.085000
			CHANNELS 3 Zrotation Yrotation Xrotation
			JOINT LeftLeg
			{
				OFFSET 2.215000 -6.000000 0.000000
				CHANNELS 3 Zrotation Yrotation Xrotation
				JOINT LeftFoot
				{
					OFFSET 2.500000 -6.900000 0.000000
					CHANNELS 3 Zrotation Yrotation Xrotation
					JOINT LeftToeBase
					{
						OFFSET 0.200000 -0.500000 1.950000
						CHANNELS 3 Zrotation Yrotation Xrotation
						End Site
						{
							OFFSET 0.000000 0.000000 0.000000
						}
					}
				}
			}
		}
	}
	JOINT RHipJoint
	{
		OFFSET 0.000000 0.000000 0.000000
		CHANNELS 3 Zrotation Yrotation Xrotation
		JOINT RightUpLeg
		{
			OFFSET -1.800000 -1.400000 0.085000
			CHANNELS 3 Zrotation Yrotation Xrotation
			JOINT RightLeg
			{
				OFFSET -2.215000 -6.000000 0.000000
				CHANNELS 3 Zrotation Yrotation Xrotation
				JOINT RightFoot
				{
					OFFSET -2.500000 -6.900000 0.000000
					CHANNELS 3 Zrotation Yrotation Xrotation
					JOINT RightToeBase
					{
						OFFSET -0.200000 -0.500000 1.950000
						CHANNELS 3 Zrotation Yrotation Xrotation
						End Site
						{
							OFFSET 0.000000 0.000000 0.000000
						}
					}
				}
			}
		}
	}
	JOINT LowerBack
	{
		OFFSET 0.000000 0.000000 0.000000
		CHANNELS 3 Zrotation Yrotation Xrotation
		JOINT Spine
		{
			OFFSET -0.087000 1.940000 -0.288900
			CHANNELS 3 Zrotation Yrotation Xrotation
			JOINT Spine1
			{
				OFFSET 0.000000 1.950000 0.060000
				CHANNELS 3 Zrotation Yrotation Xrotation
				JOINT Neck
				{
					OFFSET 0.000000 0.000000 0.000000
					CHANNELS 3 Zrotation Yrotation Xrotation
					JOINT Neck1
					{
						OFFSET 0.000000 1.600000 0.340000
						CHANNELS 3 Zrotation Yrotation Xrotation
						JOINT Head
						{
							OFFSET 0.000000 1.667000 -0.240000
							CHANNELS 3 Zrotation Yrotation Xrotation
							End Site
							{
								OFFSET 0.000000 0.000000 0.000000
							}
						}
					}
				}
				JOINT LeftShoulder
				{
					OFFSET 0.000000 0.000000 0.000000
					CHANNELS 3 Zrotation Yrotation Xrotation
					JOINT LeftArm
					{
						OFFSET 2.700000 1.550000 -0.730000
						CHANNELS 3 Zrotation Yrotation Xrotation
						JOINT LeftForeArm
						{
							OFFSET 5.450000 0.000000 0.000000
							CHANNELS 3 Zrotation Yrotation Xrotation
							JOINT LeftHand
							{
								OFFSET 3.450000 0.000000 0.000000
								CHANNELS 3 Zrotation Yrotation Xrotation
								JOINT LeftHandIndex1
								{
									OFFSET 0.750000 0.000000 0.000000
									CHANNELS 3 Zrotation Yrotation Xrotation
									End Site
									{
										OFFSET 0.000000 0.000000 0.000000
									}
								}
							}
						}
					}
				}
				JOINT RightShoulder
				{
					OFFSET 0.000000 0.000000 0.000000
					CHANNELS 3 Zrotation Yrotation Xrotation
					JOINT RightArm
					{
						OFFSET -2.700000 1.550000 -0.730000
						CHANNELS 3 Zrotation Yrotation Xrotation
						JOINT RightForeArm
						{
							OFFSET -5.450000 0.000000 0.000000
							CHANNELS 3 Zrotation Yrotation Xrotation
							JOINT RightHand
							{
								OFFSET -3.450000 0.000000 0.000000
								CHANNELS 3 Zrotation Yrotation Xrotation
								JOINT RightHandIndex1
								{
									OFFSET -0.750000 0.000000 0.000000
									CHANNELS 3 Zrotation Yrotation Xrotation
									End Site
									{
										OFFSET 0.000000 0.000000 0.000000
									}
								}
							}
						}
					}
				}
			}
		}
	}
}
MOTION
Frames: 14
Frame Time: 0.016667
-6.758170 16.937760 -4.403250 36.256643 68.409861 -10.757017 -15.542280 13.797201 2.262748 34.692918 -4.703605 -7.349108 24.446915 -3.391137 51.771193 -9.508307 10.421161 0.700355 3.655080 1.208370 0.602530 17.622914 -11.473296 3.789144 11.657883 -4.024899 15.924609 -16.398971 -6.991707 47.730807 -0.409855 -8.896204 11.593280 4.272220 -1.137840 -6.616110 -6.157801 0.497129 -7.796382 -9.853808 -19.293339 79.122956 -32.397908 1.037822 26.476009 17.050013 11.811104 -50.577310 -31.910674 34.273252 102.036570 -6.407190 -2.388660 -87.966130 2.821570 -34.225197 8.629034 -11.457172 -21.484848 -18.256190 40.927809 -30.883147 -15.589007 -7.353997 -4.961032 6.396290 1.187160 -4.682410 0.679690 -44.706719 33.879432 62.849728 -77.652464 36.306295 175.244653 -27.402504 54.662272 -20.415924 3.990725 -2.214474 -7.357970 5.750000 0.405990 -7.674530 
-6.715450 16.981950 -4.477920 32.815166 64.508079 -13.795831 -15.546957 13.290110 2.728407 39.895955 -4.838686 -10.643766 20.886597 -1.312176 57.900090 -9.303813 11.390431 0.266448 3.524730 1.064710 0.430770 17.699192 -11.418525 3.615194 10.961876 -4.322783 16.502622 -18.132777 -5.773025 46.968187 -0.422533 -8.951057 11.481452 4.138700 -0.857350 -6.307880 -6.110743 0.917407 -8.203314 -13.208956 -17.891258 79.953249 -32.223298 2.077891 25.979567 17.873044 11.676621 -46.772727 -34.859236 36.106815 95.615243 -3.092540 -3.020640 -88.264310 3.856135 -31.828353 5.855339 -10.083781 -21.982781 -17.274273 39.384351 -35.938194 -16.885248 -6.104607 -5.640245 6.365720 1.336540 -4.659700 0.711630 -47.097508 35.901117 59.697533 -72.900014 34.313211 132.757148 52.842033 49.552390 149.691701 -7.352122 3.939472 -7.275170 5.746460 0.524920 -7.489360 
-6.561690 17.158640 -4.629370 28.068487 58.357134 -17.805285 -15.521310 12.603579 3.267806 47.279031 -2.891765 -11.047879 17.122595 2.330728 57.398946 -8.424518 11.455110 0.367698 3.605410 1.382430 0.241430 17.872398 -11.336372 3.300890 8.825883 -4.689531 18.202797 -19.543954 -4.050161 44.843343 -0.670215 -8.789203 11.221613 4.014290 -0.735420 -5.759590 -5.835990 1.424687 -8.479100 -4.798661 -13.614171 77.598864 -18.762497 9.569140 29.348981 10.551198 -1.227136 -45.328421 -37.922134 33.164043 95.001912 3.437680 -1.026000 -90.224330 -1.514283 -48.636340 10.469224 -6.788279 -27.275757 -25.859836 48.396604 -41.034886 -23.286411 -8.317113 -3.404722 5.892050 1.302480 -4.300020 0.985380 -18.156344 65.821834 18.884017 9.023448 24.662291 -98.904351 30.017480 71.898288 141.203173 -9.287266 1.901515 -6.487420 5.416790 0.321320 -6.905850 
-6.364850 17.424610 -4.750370 22.717423 51.653625 -20.741914 -15.454973 11.379113 3.812220 54.336099 0.419064 -10.217377 13.252446 6.108681 46.995588 -8.496662 11.156998 0.776752 3.498610 1.158000 0.150810 18.147945 -11.490639 2.874448 5.790312 -5.702195 20.233900 -19.587037 -3.281886 37.258934 -0.312666 -8.256065 11.517674 3.914740 -0.413070 -5.832260 -5.860753 3.307182 -8.994969 -0.159094 -13.468305 75.522059 -18.056756 7.248681 29.508880 9.903979 -4.805662 -38.064803 -41.281684 32.067955 87.919727 11.133070 0.286950 -89.131470 0.702268 -54.087748 7.593517 -9.255051 -24.052518 -91.806797 -53.739607 -61.883302 146.381771 -20.028596 -0.102299 5.816870 1.441900 -4.606430 0.993910 -16.780984 70.745463 12.739959 4.261677 13.994536 -92.245743 54.752964 67.345691 142.666935 -12.445011 3.670447 -6.649740 5.539700 0.384950 -6.896810 
-6.141180 17.765420 -4.840420 19.744091 44.807881 -17.860154 -14.998181 9.837335 4.090962 60.132161 0.126699 -6.017549 5.111034 10.720354 41.573733 -8.628236 12.437010 0.679672 3.722750 0.717900 0.517070 18.881305 -12.022608 2.028043 0.521282 -5.153712 18.055034 -16.697828 -4.242618 29.407195 -0.103822 -7.808268 11.901989 3.638860 0.208430 -5.314250 -7.237504 6.213868 -9.656654 11.391831 -18.892912 67.719673 -25.076533 3.615148 33.144286 9.704319 -9.454334 -30.058423 -38.454089 26.477944 78.618975 11.176990 -1.078310 -85.781870 9.105499 -57.759158 5.195250 -7.397267 -14.843684 -80.139547 -33.455780 -80.898149 127.964727 -3.685228 -10.281915 6.156170 1.814250 -4.850610 1.239810 -24.153062 70.304788 5.168282 -5.585652 12.040158 -89.864644 54.696312 64.495830 149.123121 -13.710985 3.778887 -6.839940 5.718520 0.404810 -7.052170 
-5.974630 18.109230 -5.020240 15.519688 33.642269 -17.938778 -14.647200 9.027572 4.274839 67.337028 0.651527 3.552909 4.840143 12.029769 32.540268 -7.961781 12.489902 0.773796 3.816590 1.003420 0.416040 19.366866 -12.218233 1.555748 -3.361764 -5.280410 16.432180 -13.200633 -4.696021 21.416901 0.125082 -7.217301 12.243590 3.700680 0.249260 -5.364130 -7.244774 8.310472 -10.353745 16.929896 -14.966513 64.555548 -24.245674 3.466881 29.865176 10.424302 -14.158156 -20.019724 -40.625289 23.969348 68.802379 13.132720 -1.614750 -83.181210 11.476775 -66.539674 3.904715 -7.059800 -7.503479 -92.076406 -74.088604 -86.337128 140.145096 -14.251368 -2.046032 5.717310 1.840620 -4.882510 1.437160 -24.544082 80.736521 -12.653366 -10.914000 -0.143112 -79.553623 63.192290 56.329757 149.440541 -16.728951 4.719881 -6.535820 5.637470 0.208040 -6.821770 
-5.867800 18.477420 -5.119490 15.023281 32.758670 -22.094197 -14.917488 9.203937 4.790578 71.941736 -0.568051 8.441287 5.046743 12.293507 24.587544 -7.522577 11.827693 0.735942 3.598060 1.583520 -0.043250 19.070882 -11.838100 1.378215 -10.919288 -11.577163 24.187131 -7.343713 -6.569934 10.026512 0.139946 -7.130766 12.374592 3.995810 0.013860 -6.027690 -6.620149 7.501397 -10.171706 7.654090 -10.308923 66.268727 -13.668690 8.744641 30.591485 3.370663 -13.432484 -14.297243 -33.191670 17.702993 70.449268 14.909990 2.074820 -84.102760 13.948859 -63.634696 2.228344 0.569983 -19.661571 -47.813321 76.532013 -32.259243 -24.769674 -6.032972 -5.595771 5.139410 1.679680 -4.845750 1.394280 -15.068514 81.374514 -7.243536 -17.098167 -8.859228 -60.232122 47.138185 70.374067 144.767910 -18.609394 6.878177 -6.419580 5.762760 0.162380 -6.534600 
-5.752710 18.805590 -5.009450 19.214563 32.025523 -18.615866 -14.872836 8.474456 5.296716 72.932635 -2.852040 17.612857 -16.537474 13.954739 8.430257 -6.401845 12.578052 0.476602 3.687430 1.977510 -0.250590 19.275435 -11.171440 1.298786 -20.572941 -13.830222 30.325302 3.818099 -7.514700 -7.639732 -0.404589 -7.761061 12.072795 3.974020 0.035220 -5.749720 -6.706703 7.655645 -10.480113 -2.089712 -5.642560 64.203573 -7.500936 14.420988 31.035858 -3.388502 -11.296212 -8.743526 -26.540615 12.904018 68.062315 17.416330 4.938990 -80.286820 16.096908 -65.832882 -5.759961 5.655289 -22.866033 -34.781347 82.186499 -18.503587 -22.725385 -4.859429 -4.840908 4.548560 1.677440 -4.614440 1.732080 -5.579386 80.069578 6.250171 -23.092858 -15.565024 -46.430576 -22.337701 85.731002 139.163484 -14.480260 8.928868 -5.743500 5.458340 -0.090650 -6.067800 
-5.672680 19.097310 -4.939400 28.506821 38.446281 -14.774016 -15.197558 9.144552 5.484666 66.061328 -0.913206 13.778285 -15.327482 13.145712 8.516811 -6.047064 11.870797 0.911707 3.631740 1.905360 -0.293840 18.764924 -10.769724 1.690229 -27.053816 -13.343171 39.565263 5.782944 -7.183066 -16.377410 -0.809178 -8.355182 11.832432 3.642000 0.025350 -5.500860 -5.344115 5.613933 -9.750925 -20.943982 1.086848 67.706179 -0.600688 21.572426 26.444021 -6.969112 -7.923203 -6.318632 -19.247919 10.550874 72.428078 18.992130 8.725830 -80.005640 15.778607 -62.366636 -5.125578 16.051512 -17.787824 -29.143539 79.241211 -40.454088 -32.211808 -5.446301 -3.648338 4.322120 1.645210 -4.485490 1.865470 -2.521605 80.625667 6.203471 -23.850010 -17.759960 -50.504736 -42.799188 89.378484 144.153157 -11.444247 8.235213 -5.326110 5.146120 -0.165600 -5.866880 
-5.595660 19.413820 -4.972930 29.798700 39.229705 -14.834209 -15.161285 10.114811 4.497399 60.225954 0.790087 12.619150 1.476565 11.433796 13.536080 -6.059311 10.364753 1.514137 3.627790 2.077030 -0.345440 18.635878 -11.220638 1.671522 -26.925493 -13.663836 42.027356 3.861683 -7.761915 -12.736465 -0.740629 -8.436647 11.850998 3.728180 -0.157090 -5.588880 -5.354207 6.208495 -9.306523 -29.235265 1.328473 68.502560 1.286972 25.316249 25.440606 -8.370524 -7.251877 -2.733432 -15.923991 10.450965 64.859611 14.345390 8.810320 -76.994830 15.551080 -57.266309 2.722517 27.691087 -11.913687 -26.669030 78.929995 -35.679682 -28.988593 -5.256132 -3.119135 4.026630 1.637080 -4.474740 1.868330 -3.526214 81.044402 7.610279 -30.178615 -23.253556 -51.781652 152.518659 89.823322 -30.266009 -10.833323 7.665410 -5.134910 4.908620 -0.308000 -5.796820 
-5.450950 19.782290 -5.013600 27.285972 26.615690 -19.165718 -15.354552 12.132899 4.615229 57.269838 -3.109651 28.826400 -3.736071 12.920677 12.765284 -6.319566 12.161338 0.765751 3.392070 1.652010 -0.709540 18.189497 -10.527886 1.916500 -28.825396 -11.095451 42.322427 4.062672 -9.483102 -3.495308 -0.813892 -8.864634 11.620909 3.678040 0.354890 -5.196420 -4.937423 2.760742 -8.207529 -48.946577 0.624743 58.534445 31.760682 43.170612 45.161283 -25.003076 -6.936948 8.360857 -7.125104 9.298923 54.654202 6.348890 8.011590 -77.978990 11.113875 -67.221924 -7.586258 20.484393 -2.060078 -26.510629 77.951066 -37.397459 -28.963316 -6.178559 -4.204218 4.513960 1.982890 -4.603990 1.866450 36.054498 88.877299 37.904687 -61.098400 -19.757709 -61.722712 87.972889 23.602575 -27.837895 -15.027262 8.959259 -5.608690 5.193950 0.228660 -5.945300 
-5.374580 20.098780 -5.046240 29.919465 24.112775 -20.579161 -15.738749 13.802173 4.439309 48.333467 -0.907442 35.272904 3.503918 11.341163 10.455130 -6.604502 11.798460 1.264625 3.203190 1.323580 -0.569510 17.400417 -10.507045 2.425132 -27.468429 -8.738157 47.114688 0.966220 -10.167172 1.008896 -0.599899 -9.096114 11.891829 3.492000 0.732040 -5.261050 -2.183093 -4.691320 -6.763343 -69.170843 -0.846714 45.746221 47.882881 59.864310 56.316695 -13.268135 -4.911185 18.052607 1.199496 11.103222 49.976625 -8.481790 8.637400 -72.346410 11.375774 -69.219908 5.747131 25.563743 4.723762 -23.029628 75.750324 -31.564896 -22.426607 -7.320469 -4.849161 4.546010 2.379330 -4.831600 1.785670 11.623469 58.878162 59.569355 -39.232367 -51.359303 -54.601540 103.617058 89.430893 -19.712770 -23.702139 13.073052 -5.905740 5.505500 0.369010 -6.074620 
-5.224140 20.300180 -4.931510 31.333203 16.192573 -16.521944 -16.033487 16.446958 3.294036 37.361143 2.687908 40.551808 13.349489 9.603844 9.273420 -7.714679 12.151228 1.002313 2.972360 0.767280 -0.672100 17.818119 -7.225601 1.390379 -27.414408 -6.126117 49.200709 2.726808 -11.133166 4.078318 -0.388185 -9.306316 11.390564 3.670610 0.843560 -5.035330 -2.320673 -11.450604 -5.259113 -64.812893 14.607240 34.196122 68.336825 43.569141 64.102320 -28.486563 26.473071 16.259884 50.611026 9.990770 31.986509 -21.859270 16.595370 -83.134070 3.282216 -61.991318 -6.885341 32.625115 -1.969662 -24.374812 77.338290 -30.351465 -23.660003 -7.223963 -4.503258 5.443310 2.664270 -4.937700 1.526990 -106.296611 87.580619 -175.862336 -102.701178 74.348981 147.115450 -64.041272 -10.996442 -24.110330 9.454963 -12.334459 -6.804180 5.632440 0.885930 -6.755940 
-4.469320 20.369630 -4.132870 7.755852 -2.459893 27.199750 -11.114741 26.855151 10.682292 14.728497 8.404004 2.784582 12.529142 5.189538 0.871085 -10.838924 9.444359 2.937247 2.851060 0.251200 -0.104960 17.667030 -9.078896 7.329485 -10.116424 7.029835 -4.440662 5.698584 -6.379583 16.228376 2.913070 -2.977401 13.278286 3.841420 1.823140 -4.459480 -7.663366 -32.072197 5.355471 56.859118 6.597162 -66.557785 -45.683027 42.663528 7.736329 -3.144989 -2.783902 -54.195055 12.950486 30.045452 116.847720 -22.357640 56.189050 -42.117150 35.963421 38.679239 -19.958140 -11.111121 -30.313622 41.015647 79.667709 -52.627421 -27.351449 -7.353252 -8.686978 5.952760 3.819760 -5.132970 1.248470 -70.839594 31.912118 43.864262 -40.874223 8.952774 170.344293 87.871493 63.629635 -20.654660 -23.969637 6.759470 -7.636851 6.133060 1.295310 -7.249840 
